<svg width="25" height="25" viewBox="0 0 25 25" fill="none" xmlns="http://www.w3.org/2000/svg">
<path d="M12.5 21.875C10.7771 21.875 9.37499 20.4729 9.37499 18.75V13.7875C8.18436 14.8542 6.22395 14.8073 5.08228 13.6677C4.49694 13.0814 4.16818 12.2868 4.16818 11.4583C4.16818 10.6299 4.49694 9.83526 5.08228 9.24896L12.5 1.83125L19.9177 9.24896C20.503 9.83526 20.8318 10.6299 20.8318 11.4583C20.8318 12.2868 20.503 13.0814 19.9177 13.6677C18.7781 14.8083 16.8146 14.8552 15.625 13.7875V18.75C15.625 20.4729 14.2229 21.875 12.5 21.875ZM11.4583 8.76459V18.75C11.4703 19.0182 11.5853 19.2715 11.7793 19.457C11.9734 19.6426 12.2315 19.7461 12.5 19.7461C12.7685 19.7461 13.0266 19.6426 13.2206 19.457C13.4147 19.2715 13.5297 19.0182 13.5417 18.75V8.76459L16.9719 12.1948C17.1702 12.3844 17.434 12.4902 17.7083 12.4902C17.9827 12.4902 18.2465 12.3844 18.4448 12.1948C18.5416 12.0981 18.6184 11.9833 18.6708 11.857C18.7232 11.7306 18.7502 11.5951 18.7502 11.4583C18.7502 11.3215 18.7232 11.1861 18.6708 11.0597C18.6184 10.9333 18.5416 10.8185 18.4448 10.7219L12.5 4.77709L6.5552 10.7219C6.45838 10.8185 6.38157 10.9333 6.32916 11.0597C6.27675 11.1861 6.24978 11.3215 6.24978 11.4583C6.24978 11.5951 6.27675 11.7306 6.32916 11.857C6.38157 11.9833 6.45838 12.0981 6.5552 12.1948C6.75349 12.3844 7.01729 12.4902 7.29165 12.4902C7.56602 12.4902 7.82981 12.3844 8.02811 12.1948L11.4583 8.76459Z" fill="white"/>
</svg>
