<svg width="25" height="25" viewBox="0 0 25 25" fill="none" xmlns="http://www.w3.org/2000/svg">
<path d="M12.4999 2.08334C11.132 2.08334 9.77744 2.35277 8.51363 2.87626C7.24982 3.39974 6.1015 4.16703 5.13422 5.13431C3.18072 7.08781 2.08325 9.73733 2.08325 12.5C2.08325 15.2627 3.18072 17.9122 5.13422 19.8657C6.1015 20.833 7.24982 21.6003 8.51363 22.1237C9.77744 22.6472 11.132 22.9167 12.4999 22.9167C15.2626 22.9167 17.9121 21.8192 19.8656 19.8657C21.8191 17.9122 22.9166 15.2627 22.9166 12.5C22.9166 11.1321 22.6472 9.77752 22.1237 8.51372C21.6002 7.24991 20.8329 6.10158 19.8656 5.13431C18.8983 4.16703 17.75 3.39974 16.4862 2.87626C15.2224 2.35277 13.8679 2.08334 12.4999 2.08334ZM12.4999 4.16667C14.7101 4.16667 16.8297 5.04464 18.3925 6.60745C19.9553 8.17025 20.8333 10.2899 20.8333 12.5C20.8333 15 19.7916 17.1875 18.0208 18.75C16.5624 17.3958 14.5833 16.6667 12.4999 16.6667C10.4166 16.6667 8.54158 17.3958 6.97908 18.75C5.20825 17.1875 4.16659 15 4.16659 12.5C4.16659 10.2899 5.04456 8.17025 6.60736 6.60745C8.17017 5.04464 10.2898 4.16667 12.4999 4.16667ZM14.5833 6.13542C14.1874 6.14584 13.8124 6.40625 13.6458 6.8125L12.302 10.1771L12.1978 10.4167C11.4583 10.5521 10.8437 11.0417 10.5624 11.7292C10.1353 12.8021 10.6562 14.0104 11.7291 14.4375C12.802 14.8646 14.0103 14.3438 14.4374 13.2708C14.7083 12.5833 14.5833 11.7917 14.1353 11.2083L14.2395 10.9375L15.5833 7.59375L15.5937 7.5625C15.802 7.03125 15.5416 6.42709 15.0103 6.20834C14.8749 6.15625 14.7395 6.13542 14.5833 6.13542ZM10.4166 6.25C10.1403 6.25 9.87537 6.35975 9.68002 6.5551C9.48467 6.75045 9.37492 7.0154 9.37492 7.29167C9.37492 7.56794 9.48467 7.83289 9.68002 8.02824C9.87537 8.22359 10.1403 8.33334 10.4166 8.33334C10.6929 8.33334 10.9578 8.22359 11.1532 8.02824C11.3485 7.83289 11.4583 7.56794 11.4583 7.29167C11.4583 7.0154 11.3485 6.75045 11.1532 6.5551C10.9578 6.35975 10.6929 6.25 10.4166 6.25ZM7.29159 9.375C7.01532 9.375 6.75037 9.48475 6.55502 9.6801C6.35967 9.87545 6.24992 10.1404 6.24992 10.4167C6.24992 10.6929 6.35967 10.9579 6.55502 11.1532C6.75037 11.3486 7.01532 11.4583 7.29159 11.4583C7.56785 11.4583 7.8328 11.3486 8.02815 11.1532C8.2235 10.9579 8.33325 10.6929 8.33325 10.4167C8.33325 10.1404 8.2235 9.87545 8.02815 9.6801C7.8328 9.48475 7.56785 9.375 7.29159 9.375ZM17.7083 9.375C17.432 9.375 17.167 9.48475 16.9717 9.6801C16.7763 9.87545 16.6666 10.1404 16.6666 10.4167C16.6666 10.6929 16.7763 10.9579 16.9717 11.1532C17.167 11.3486 17.432 11.4583 17.7083 11.4583C17.9845 11.4583 18.2495 11.3486 18.4448 11.1532C18.6402 10.9579 18.7499 10.6929 18.7499 10.4167C18.7499 10.1404 18.6402 9.87545 18.4448 9.6801C18.2495 9.48475 17.9845 9.375 17.7083 9.375Z" fill="white"/>
</svg>
