<svg width="31" height="31" viewBox="0 0 31 31" fill="none" xmlns="http://www.w3.org/2000/svg">
<path fill-rule="evenodd" clip-rule="evenodd" d="M3.50742 3.22622C2.40115 4.26326 1.52173 5.49796 0.919788 6.85923C0.317846 8.22051 0.0052726 9.68146 6.61325e-05 11.158C-0.00514034 12.6345 0.297123 14.0974 0.889452 15.4625C1.48178 16.8275 2.35247 18.0678 3.4514 19.1119C4.55033 20.1559 5.85578 20.9832 7.29259 21.5459C8.7294 22.1087 10.2692 22.3958 11.8233 22.3909C13.3774 22.386 14.9151 22.089 16.3479 21.5171C17.7808 20.9452 19.0803 20.1097 20.1719 19.0587C22.3573 16.9543 23.578 14.1142 23.5676 11.158C23.5572 8.20176 22.3165 5.36945 20.1162 3.27908C17.916 1.18871 14.9349 0.00996663 11.8233 6.29125e-05C8.71173 -0.0098408 5.72233 1.1499 3.50742 3.22622ZM17.1424 16.1804C16.446 16.842 15.6193 17.3668 14.7095 17.7249C13.7996 18.0829 12.8245 18.2672 11.8397 18.2672C10.8548 18.2672 9.87968 18.0829 8.96984 17.7249C8.06 17.3668 7.23329 16.842 6.53693 16.1804C5.84057 15.5188 5.28818 14.7334 4.91131 13.869C4.53444 13.0046 4.34047 12.0781 4.34047 11.1424C4.34047 10.2068 4.53444 9.28033 4.91131 8.41591C5.28818 7.5515 5.84057 6.76607 6.53693 6.10447C7.9433 4.76832 9.85075 4.01768 11.8397 4.01768C13.8286 4.01768 15.736 4.76832 17.1424 6.10447C18.5487 7.44062 19.3388 9.25284 19.3388 11.1424C19.3388 13.032 18.5487 14.8443 17.1424 16.1804Z" fill="white"/>
<path d="M17.8986 21.2184C17.6001 20.9347 17.3633 20.598 17.2017 20.2275C17.0402 19.8569 16.957 19.4598 16.957 19.0587C16.957 18.6576 17.0402 18.2604 17.2017 17.8898C17.3633 17.5193 17.6001 17.1826 17.8986 16.8989C18.1971 16.6153 18.5515 16.3903 18.9416 16.2369C19.3316 16.0834 19.7497 16.0044 20.1718 16.0044C20.594 16.0044 21.012 16.0834 21.4021 16.2369C21.7921 16.3903 22.1465 16.6153 22.445 16.8989L30.0188 24.0966C30.3258 24.3783 30.5706 24.7152 30.739 25.0877C30.9075 25.4602 30.9961 25.8609 30.9998 26.2663C31.0035 26.6717 30.9222 27.0738 30.7606 27.449C30.599 27.8243 30.3604 28.1652 30.0587 28.4519C29.7569 28.7385 29.3981 28.9653 29.0031 29.1188C28.6082 29.2723 28.185 29.3496 27.7583 29.346C27.3315 29.3425 26.9098 29.2583 26.5177 29.0983C26.1256 28.9382 25.771 28.7056 25.4745 28.414L17.8986 21.2184Z" fill="white"/>
</svg>
