<svg width="24" height="24" viewBox="0 0 24 24" fill="none" xmlns="http://www.w3.org/2000/svg">
<path d="M20.0261 17.001C17.2641 21.785 11.1471 23.424 6.36312 20.662C5.07681 19.9212 3.97224 18.9024 3.13012 17.68C3.06487 17.5854 3.02224 17.477 3.00553 17.3633C2.98882 17.2495 2.99847 17.1335 3.03375 17.0241C3.06902 16.9147 3.12898 16.8148 3.20898 16.7323C3.28897 16.6497 3.38688 16.5867 3.49512 16.548C7.26212 15.2 9.28012 13.638 10.4511 11.402C11.6841 9.04899 12.0021 6.47199 11.1401 2.93899C11.1123 2.82527 11.1115 2.70663 11.1378 2.59256C11.1641 2.47848 11.2167 2.37214 11.2914 2.28204C11.3662 2.19195 11.461 2.1206 11.5682 2.0737C11.6755 2.02681 11.7922 2.00567 11.9091 2.01199C13.4787 2.09647 15.006 2.5512 16.3661 3.33899C21.1501 6.10099 22.7891 12.218 20.0261 17.001Z" fill="black"/>
</svg>
