<svg width="24" height="24" viewBox="0 0 24 24" fill="none" xmlns="http://www.w3.org/2000/svg">
<path d="M12.7401 5.47001C15.1001 6.50001 16.3501 9.03001 15.9201 11.46C16.5723 12.0231 17.0957 12.72 17.4546 13.5034C17.8136 14.2868 17.9996 15.1383 18.0001 16V16.17C18.3213 16.057 18.6595 15.9995 19.0001 16C19.7957 16 20.5588 16.3161 21.1214 16.8787C21.684 17.4413 22.0001 18.2044 22.0001 19C22.0001 19.7957 21.684 20.5587 21.1214 21.1213C20.5588 21.6839 19.7957 22 19.0001 22H6.00006C4.93919 22 3.92178 21.5786 3.17163 20.8284C2.42149 20.0783 2.00006 19.0609 2.00006 18C2.00006 16.9391 2.42149 15.9217 3.17163 15.1716C3.92178 14.4214 4.93919 14 6.00006 14H6.27006C5.00006 12.45 4.60006 10.24 5.50006 8.26001C6.09091 6.9306 7.18527 5.89006 8.54276 5.36693C9.90025 4.84381 11.4099 4.88088 12.7401 5.47001ZM11.9301 7.30001C10.1601 6.50001 8.09006 7.31001 7.31006 9.07001C6.85006 10.09 6.93006 11.22 7.41006 12.13C7.97328 11.4615 8.67605 10.9243 9.46901 10.5563C10.262 10.1884 11.1259 9.99848 12.0001 10C12.7001 10 13.3801 10.12 14.0001 10.34C13.9704 9.69129 13.7612 9.06356 13.3957 8.52679C13.0302 7.99002 12.5228 7.56531 11.9301 7.30001ZM13.5501 3.64001C13.0001 3.40001 12.4501 3.23001 11.8801 3.12001L14.3701 1.82001L15.2701 4.71001C14.7466 4.27887 14.1682 3.91906 13.5501 3.64001ZM6.09006 4.44001C5.60006 4.79001 5.17006 5.19001 4.80006 5.63001L4.91006 2.82001L7.87006 3.50001C7.25006 3.71001 6.65006 4.03001 6.09006 4.44001ZM18.0001 9.71001C17.9101 9.12001 17.7801 8.55001 17.5901 8.00001L19.9701 9.50001L17.9201 11.73C18.0301 11.08 18.0501 10.4 18.0001 9.71001ZM3.04006 11.3C3.11006 11.9 3.24006 12.47 3.43006 13L1.06006 11.5L3.10006 9.28001C3.00006 9.93001 2.97006 10.61 3.04006 11.3ZM19.0001 18H16.0001V16C16.0001 14.9391 15.5786 13.9217 14.8285 13.1716C14.0783 12.4214 13.0609 12 12.0001 12C10.9392 12 9.92178 12.4214 9.17163 13.1716C8.42149 13.9217 8.00006 14.9391 8.00006 16H6.00006C5.46963 16 4.96092 16.2107 4.58584 16.5858C4.21077 16.9609 4.00006 17.4696 4.00006 18C4.00006 18.5304 4.21077 19.0391 4.58584 19.4142C4.96092 19.7893 5.46963 20 6.00006 20H19.0001C19.2653 20 19.5196 19.8947 19.7072 19.7071C19.8947 19.5196 20.0001 19.2652 20.0001 19C20.0001 18.7348 19.8947 18.4804 19.7072 18.2929C19.5196 18.1054 19.2653 18 19.0001 18Z" fill="black"/>
</svg>
