<svg width="16" height="25" viewBox="0 0 16 25" fill="none" xmlns="http://www.w3.org/2000/svg">
<path d="M3.90869 7.8125C3.90869 6.08887 5.31006 4.6875 7.03369 4.6875H8.59619C10.3198 4.6875 11.7212 6.08887 11.7212 7.8125V7.98828C11.7212 9.05273 11.1792 10.0439 10.2856 10.6152L8.2251 11.9385C7.6201 12.3275 7.12245 12.8621 6.77779 13.4934C6.43313 14.1248 6.25249 14.8325 6.25244 15.5518V15.625C6.25244 16.4893 6.95068 17.1875 7.81494 17.1875C8.6792 17.1875 9.37744 16.4893 9.37744 15.625V15.5566C9.37744 15.1563 9.58252 14.7852 9.91455 14.5703L11.9751 13.2471C13.7622 12.0947 14.8462 10.1172 14.8462 7.98828V7.8125C14.8462 4.36035 12.0483 1.5625 8.59619 1.5625H7.03369C3.58154 1.5625 0.783691 4.36035 0.783691 7.8125C0.783691 8.67676 1.48193 9.375 2.34619 9.375C3.21045 9.375 3.90869 8.67676 3.90869 7.8125ZM7.81494 23.4375C8.33294 23.4375 8.82973 23.2317 9.19601 22.8654C9.56229 22.4992 9.76807 22.0024 9.76807 21.4844C9.76807 20.9664 9.56229 20.4696 9.19601 20.1033C8.82973 19.737 8.33294 19.5312 7.81494 19.5312C7.29694 19.5312 6.80016 19.737 6.43387 20.1033C6.06759 20.4696 5.86182 20.9664 5.86182 21.4844C5.86182 22.0024 6.06759 22.4992 6.43387 22.8654C6.80016 23.2317 7.29694 23.4375 7.81494 23.4375Z" fill="white"/>
</svg>
