<svg width="24" height="24" viewBox="0 0 24 24" fill="none" xmlns="http://www.w3.org/2000/svg">
<path d="M9.00001 12C9.53001 12.14 9.85001 12.69 9.71001 13.22L8.41001 18.05C8.27001 18.59 7.72001 18.9 7.19001 18.76C7.06285 18.7281 6.94349 18.6708 6.83918 18.5913C6.73488 18.5119 6.64782 18.4121 6.58328 18.298C6.51874 18.1839 6.47808 18.0579 6.46377 17.9276C6.44945 17.7973 6.46179 17.6654 6.50001 17.54L7.78001 12.71C7.92001 12.17 8.47001 11.86 9.00001 12ZM13 12C13.53 12.14 13.85 12.69 13.71 13.22L11.64 20.95C11.5 21.5 10.95 21.8 10.41 21.66C9.88001 21.5 9.56001 20.97 9.70001 20.43L11.78 12.71C11.92 12.17 12.47 11.86 13 12ZM17 12C17.53 12.14 17.85 12.69 17.71 13.22L16.41 18.05C16.27 18.59 15.72 18.9 15.19 18.76C15.0628 18.7281 14.9435 18.6708 14.8392 18.5913C14.7349 18.5119 14.6478 18.4121 14.5833 18.298C14.5187 18.1839 14.4781 18.0579 14.4638 17.9276C14.4495 17.7973 14.4618 17.6654 14.5 17.54L15.78 12.71C15.92 12.17 16.47 11.86 17 12ZM17 10V9C17 7.67392 16.4732 6.40215 15.5355 5.46447C14.5979 4.52678 13.3261 4 12 4C9.50001 4 7.45001 5.82 7.06001 8.19C6.73001 8.07 6.37001 8 6.00001 8C5.20436 8 4.4413 8.31607 3.87869 8.87868C3.31608 9.44129 3.00001 10.2044 3.00001 11C3.00001 12.11 3.60001 13.08 4.50001 13.6V13.59C5.00001 13.87 5.14001 14.5 4.87001 14.96C4.59001 15.43 4.00001 15.6 3.50001 15.32V15.33C2.73857 14.8927 2.10627 14.2619 1.66723 13.5015C1.22818 12.7411 0.997998 11.8781 1.00001 11C1.00001 9.67392 1.5268 8.40215 2.46448 7.46447C3.40216 6.52678 4.67393 6 6.00001 6C7.00001 3.65 9.30001 2 12 2C15.43 2 18.24 4.66 18.5 8.03L19 8C20.0609 8 21.0783 8.42143 21.8284 9.17157C22.5786 9.92172 23 10.9391 23 12C23 13.5 22.2 14.77 21 15.46C20.5 15.73 19.91 15.57 19.63 15.09C19.36 14.61 19.5 14 20 13.72V13.73C20.6 13.39 21 12.74 21 12C21 11.4696 20.7893 10.9609 20.4142 10.5858C20.0392 10.2107 19.5304 10 19 10H17Z" fill="black"/>
</svg>
