<svg width="24" height="24" viewBox="0 0 24 24" fill="none" xmlns="http://www.w3.org/2000/svg">
<path d="M17 18C16.7348 18 16.4804 17.8947 16.2929 17.7071C16.1054 17.5196 16 17.2652 16 17C16 16.7348 16.1054 16.4804 16.2929 16.2929C16.4804 16.1054 16.7348 16 17 16C18.654 16 20 14.654 20 13C20 11.346 18.654 10 17 10C16.762 10 16.504 10.042 16.187 10.131L15.116 10.432L14.93 9.33401C14.7768 8.40247 14.2974 7.55574 13.5775 6.94501C12.8576 6.33429 11.9441 5.99935 11 6.00001C10.4066 6.00091 9.82087 6.13365 9.28507 6.38863C8.74927 6.64361 8.27683 7.01447 7.9019 7.47438C7.52696 7.93429 7.25891 8.47177 7.11711 9.04795C6.97532 9.62413 6.96332 10.2246 7.082 10.806L7.342 12.046L5.906 11.994C4.896 12 4 12.897 4 14C4 15.103 4.896 16 6 16C6.26522 16 6.51957 16.1054 6.70711 16.2929C6.89464 16.4804 7 16.7348 7 17C7 17.2652 6.89464 17.5196 6.70711 17.7071C6.51957 17.8947 6.26522 18 6 18C3.795 18 2 16.206 2 14C2.00109 13.1131 2.2964 12.2516 2.83967 11.5505C3.38293 10.8495 4.14343 10.3485 5.002 10.126L5 10C5 6.69101 7.691 4.00001 11 4.00001C12.2424 3.99786 13.4545 4.38357 14.4671 5.10332C15.4798 5.82307 16.2426 6.84097 16.649 8.01501C19.574 7.77401 22 10.127 22 13C22 15.757 19.757 18 17 18ZM12.639 14L8.139 18.051L11.139 19.5L9.639 23L14.139 18.95L11.139 17.5L12.639 14Z" fill="black"/>
</svg>
