<svg width="25" height="25" viewBox="0 0 25 25" fill="none" xmlns="http://www.w3.org/2000/svg">
<path d="M12.9453 2.93554C12.8903 2.8713 12.822 2.81973 12.7452 2.78437C12.6684 2.74901 12.5848 2.73071 12.5002 2.73071C12.4157 2.73071 12.3321 2.74901 12.2553 2.78437C12.1784 2.81973 12.1102 2.8713 12.0552 2.93554C10.5093 4.74365 5.46875 10.9946 5.46875 15.625C5.46875 19.9399 8.18555 22.6562 12.5 22.6562C16.8145 22.6562 19.5312 19.9399 19.5312 15.625C19.5312 10.9946 14.4907 4.74365 12.9453 2.93554ZM13.2812 20.1172C13.1874 20.1174 13.0949 20.095 13.0115 20.052C12.9281 20.009 12.8562 19.9466 12.8019 19.8701C12.7477 19.7935 12.7126 19.705 12.6996 19.6121C12.6867 19.5191 12.6963 19.4244 12.7275 19.3359C12.7675 19.2205 12.8429 19.1206 12.9429 19.0504C13.0429 18.9803 13.1625 18.9435 13.2847 18.9453C14.0602 18.9436 14.8036 18.6348 15.352 18.0864C15.9004 17.538 16.2093 16.7946 16.2109 16.019C16.2092 15.8969 16.2459 15.7773 16.3161 15.6773C16.3862 15.5772 16.4861 15.5019 16.6016 15.4619C16.69 15.4306 16.7847 15.4211 16.8777 15.434C16.9706 15.4469 17.0591 15.482 17.1357 15.5363C17.2123 15.5906 17.2747 15.6624 17.3177 15.7458C17.3607 15.8292 17.383 15.9218 17.3828 16.0156C17.3816 17.1031 16.9491 18.1456 16.1802 18.9146C15.4113 19.6835 14.3687 20.116 13.2812 20.1172Z" fill="white"/>
</svg>
