<svg width="24" height="24" viewBox="0 0 24 24" fill="none" xmlns="http://www.w3.org/2000/svg">
<path d="M11.9999 2.39999C12.2386 2.39999 12.4675 2.49481 12.6363 2.6636C12.8051 2.83238 12.8999 3.0613 12.8999 3.29999V5.92799L14.6639 4.16399C14.7463 4.07557 14.8457 4.00465 14.9561 3.95546C15.0665 3.90627 15.1856 3.87982 15.3065 3.87768C15.4273 3.87555 15.5474 3.89778 15.6594 3.94305C15.7715 3.98831 15.8733 4.05569 15.9587 4.14115C16.0442 4.22661 16.1116 4.32841 16.1569 4.44048C16.2021 4.55254 16.2243 4.67258 16.2222 4.79342C16.2201 4.91426 16.1936 5.03344 16.1444 5.14384C16.0952 5.25424 16.0243 5.3536 15.9359 5.43599L12.8999 8.47199V11.1H15.5279L18.5639 8.06399C18.6463 7.97557 18.7457 7.90465 18.8561 7.85546C18.9665 7.80627 19.0856 7.77982 19.2065 7.77768C19.3273 7.77555 19.4474 7.79778 19.5594 7.84305C19.6715 7.88831 19.7733 7.95569 19.8587 8.04115C19.9442 8.12661 20.0116 8.22841 20.0569 8.34048C20.1021 8.45254 20.1243 8.57258 20.1222 8.69342C20.1201 8.81426 20.0936 8.93344 20.0444 9.04384C19.9953 9.15424 19.9243 9.2536 19.8359 9.33599L18.0719 11.1H20.6999C20.9386 11.1 21.1675 11.1948 21.3363 11.3636C21.5051 11.5324 21.5999 11.7613 21.5999 12C21.5999 12.2387 21.5051 12.4676 21.3363 12.6364C21.1675 12.8052 20.9386 12.9 20.6999 12.9H18.0719L19.8359 14.664C19.9243 14.7464 19.9953 14.8457 20.0444 14.9561C20.0936 15.0665 20.1201 15.1857 20.1222 15.3066C20.1243 15.4274 20.1021 15.5474 20.0569 15.6595C20.0116 15.7716 19.9442 15.8734 19.8587 15.9588C19.7733 16.0443 19.6715 16.1117 19.5594 16.1569C19.4474 16.2022 19.3273 16.2244 19.2065 16.2223C19.0856 16.2202 18.9665 16.1937 18.8561 16.1445C18.7457 16.0953 18.6463 16.0244 18.5639 15.936L15.5279 12.9H12.8999V15.528L15.9359 18.564C16.0243 18.6464 16.0952 18.7457 16.1444 18.8561C16.1936 18.9665 16.2201 19.0857 16.2222 19.2066C16.2243 19.3274 16.2021 19.4474 16.1569 19.5595C16.1116 19.6716 16.0442 19.7734 15.9587 19.8588C15.8733 19.9443 15.7715 20.0117 15.6594 20.0569C15.5474 20.1022 15.4273 20.1244 15.3065 20.1223C15.1856 20.1202 15.0665 20.0937 14.9561 20.0445C14.8457 19.9953 14.7463 19.9244 14.6639 19.836L12.8999 18.072V20.7C12.8999 20.9387 12.8051 21.1676 12.6363 21.3364C12.4675 21.5052 12.2386 21.6 11.9999 21.6C11.7612 21.6 11.5323 21.5052 11.3635 21.3364C11.1947 21.1676 11.0999 20.9387 11.0999 20.7V18.072L9.3359 19.836C9.16529 19.995 8.93964 20.0815 8.70648 20.0774C8.47331 20.0733 8.25085 19.9788 8.08596 19.8139C7.92106 19.649 7.82661 19.4266 7.82249 19.1934C7.81838 18.9603 7.90493 18.7346 8.0639 18.564L11.0999 15.528V12.9H8.4719L5.4359 15.936C5.26529 16.095 5.03964 16.1815 4.80648 16.1774C4.57331 16.1733 4.35085 16.0788 4.18596 15.9139C4.02106 15.749 3.92661 15.5266 3.92249 15.2934C3.91838 15.0603 4.00493 14.8346 4.1639 14.664L5.9279 12.9H3.2999C3.06121 12.9 2.83229 12.8052 2.66351 12.6364C2.49472 12.4676 2.3999 12.2387 2.3999 12C2.3999 11.7613 2.49472 11.5324 2.66351 11.3636C2.83229 11.1948 3.06121 11.1 3.2999 11.1H5.9279L4.1639 9.33599C4.00493 9.16538 3.91838 8.93973 3.92249 8.70657C3.92661 8.47341 4.02106 8.25094 4.18596 8.08605C4.35085 7.92115 4.57331 7.8267 4.80648 7.82258C5.03964 7.81847 5.26529 7.90502 5.4359 8.06399L8.4719 11.1H11.0999V8.47199L8.0639 5.43599C7.90493 5.26538 7.81838 5.03973 7.82249 4.80657C7.82661 4.57341 7.92106 4.35094 8.08596 4.18605C8.25085 4.02115 8.47331 3.9267 8.70648 3.92258C8.93964 3.91847 9.16529 4.00502 9.3359 4.16399L11.0999 5.92799V3.29999C11.0999 3.0613 11.1947 2.83238 11.3635 2.6636C11.5323 2.49481 11.7612 2.39999 11.9999 2.39999Z" fill="white"/>
</svg>
