<svg width="24" height="24" viewBox="0 0 24 24" fill="none" xmlns="http://www.w3.org/2000/svg">
<path d="M19.0001 5C18.7349 5 18.4805 5.10536 18.293 5.29289C18.1055 5.48043 18.0001 5.73478 18.0001 6C18.0001 6.26522 18.1055 6.51957 18.293 6.70711C18.4805 6.89464 18.7349 7 19.0001 7C19.2653 7 19.5197 7.10536 19.7072 7.29289C19.8947 7.48043 20.0001 7.73478 20.0001 8C20.0001 8.26522 19.8947 8.51957 19.7072 8.70711C19.5197 8.89464 19.2653 9 19.0001 9H8.0001C7.73488 9 7.48053 9.10536 7.29299 9.29289C7.10545 9.48043 7.0001 9.73478 7.0001 10C7.0001 10.2652 7.10545 10.5196 7.29299 10.7071C7.48053 10.8946 7.73488 11 8.0001 11H14.0001C14.2653 11 14.5197 11.1054 14.7072 11.2929C14.8947 11.4804 15.0001 11.7348 15.0001 12C15.0001 12.2652 14.8947 12.5196 14.7072 12.7071C14.5197 12.8946 14.2653 13 14.0001 13H7.6001C5.9461 13 4.6001 14.346 4.6001 16C4.6001 17.654 5.9461 19 7.6001 19C7.86531 19 8.11967 18.8946 8.3072 18.7071C8.49474 18.5196 8.6001 18.2652 8.6001 18C8.6001 17.7348 8.49474 17.4804 8.3072 17.2929C8.11967 17.1054 7.86531 17 7.6001 17C7.33488 17 7.08053 16.8946 6.89299 16.7071C6.70545 16.5196 6.6001 16.2652 6.6001 16C6.6001 15.7348 6.70545 15.4804 6.89299 15.2929C7.08053 15.1054 7.33488 15 7.6001 15H14.0001C15.6541 15 17.0001 13.654 17.0001 12C17.0001 11.647 16.9281 11.314 16.8151 11H19.0001C20.6541 11 22.0001 9.654 22.0001 8C22.0001 6.346 20.6541 5 19.0001 5Z" fill="black"/>
</svg>
